<svg id="visual" viewBox="0 0 900 600" width="900" height="600" xmlns="http://www.w3.org/2000/svg" xmlns:xlink="http://www.w3.org/1999/xlink" version="1.1"><path d="M0 305L16.7 306.8C33.3 308.7 66.7 312.3 100 316.2C133.3 320 166.7 324 200 319.5C233.3 315 266.7 302 300 310.2C333.3 318.3 366.7 347.7 400 349.8C433.3 352 466.7 327 500 312.8C533.3 298.7 566.7 295.3 600 302.3C633.3 309.3 666.7 326.7 700 331.8C733.3 337 766.7 330 800 320.3C833.3 310.7 866.7 298.3 883.3 292.2L900 286L900 601L883.3 601C866.7 601 833.3 601 800 601C766.7 601 733.3 601 700 601C666.7 601 633.3 601 600 601C566.7 601 533.3 601 500 601C466.7 601 433.3 601 400 601C366.7 601 333.3 601 300 601C266.7 601 233.3 601 200 601C166.7 601 133.3 601 100 601C66.7 601 33.3 601 16.7 601L0 601Z" fill="#53b1fd"></path><path d="M0 429L16.7 421.3C33.3 413.7 66.7 398.3 100 387.2C133.3 376 166.7 369 200 378.7C233.3 388.3 266.7 414.7 300 425.5C333.3 436.3 366.7 431.7 400 428.5C433.3 425.3 466.7 423.7 500 413.7C533.3 403.7 566.7 385.3 600 379.7C633.3 374 666.7 381 700 385.2C733.3 389.3 766.7 390.7 800 392C833.3 393.3 866.7 394.7 883.3 395.3L900 396L900 601L883.3 601C866.7 601 833.3 601 800 601C766.7 601 733.3 601 700 601C666.7 601 633.3 601 600 601C566.7 601 533.3 601 500 601C466.7 601 433.3 601 400 601C366.7 601 333.3 601 300 601C266.7 601 233.3 601 200 601C166.7 601 133.3 601 100 601C66.7 601 33.3 601 16.7 601L0 601Z" fill="#378ee3"></path><path d="M0 428L16.7 427.8C33.3 427.7 66.7 427.3 100 430.3C133.3 433.3 166.7 439.7 200 443C233.3 446.3 266.7 446.7 300 451.7C333.3 456.7 366.7 466.3 400 464.7C433.3 463 466.7 450 500 443C533.3 436 566.7 435 600 440.8C633.3 446.7 666.7 459.3 700 470.5C733.3 481.7 766.7 491.3 800 488.3C833.3 485.3 866.7 469.7 883.3 461.8L900 454L900 601L883.3 601C866.7 601 833.3 601 800 601C766.7 601 733.3 601 700 601C666.7 601 633.3 601 600 601C566.7 601 533.3 601 500 601C466.7 601 433.3 601 400 601C366.7 601 333.3 601 300 601C266.7 601 233.3 601 200 601C166.7 601 133.3 601 100 601C66.7 601 33.3 601 16.7 601L0 601Z" fill="#226bc7"></path><path d="M0 504L16.7 505.5C33.3 507 66.7 510 100 514.5C133.3 519 166.7 525 200 526.3C233.3 527.7 266.7 524.3 300 524.7C333.3 525 366.7 529 400 525.8C433.3 522.7 466.7 512.3 500 508.3C533.3 504.3 566.7 506.7 600 508.2C633.3 509.7 666.7 510.3 700 516.8C733.3 523.3 766.7 535.7 800 542.5C833.3 549.3 866.7 550.7 883.3 551.3L900 552L900 601L883.3 601C866.7 601 833.3 601 800 601C766.7 601 733.3 601 700 601C666.7 601 633.3 601 600 601C566.7 601 533.3 601 500 601C466.7 601 433.3 601 400 601C366.7 601 333.3 601 300 601C266.7 601 233.3 601 200 601C166.7 601 133.3 601 100 601C66.7 601 33.3 601 16.7 601L0 601Z" fill="#1849a9"></path></svg>