<?xml version="1.0" encoding="utf-8"?>
<!-- Generator: Adobe Illustrator 24.2.3, SVG Export Plug-In . SVG Version: 6.00 Build 0)  -->
<svg version="1.1" id="Warstwa_1" xmlns="http://www.w3.org/2000/svg" xmlns:xlink="http://www.w3.org/1999/xlink" x="0px" y="0px"
	 viewBox="0 0 613 99" style="enable-background:new 0 0 613 99;" xml:space="preserve">
<style type="text/css">
	.st0{fill:#2E90FA;}
</style>
<g>
	<path d="M51.73,79.24l-52-19.2V43.8l52-19.2V40L5.53,56.35v-8.86l46.2,16.35V79.24z"/>
	<path d="M74.7,88.84V27.87h20.36v45.57h28.27v15.4H74.7z"/>
	<path d="M150.96,73.76h31.12v15.08h-51.16V27.87h50v14.98h-29.96V73.76z M149.27,50.87h28.06V65h-28.06V50.87z"/>
	<path d="M184.08,88.84l27.21-60.97h20.04l27.11,60.97h-19.83l-20.57-51.47h6.65L203.7,88.84H184.08z M200.33,77.98l5.17-14.03
		h28.37l5.17,14.03H200.33z"/>
	<path d="M263.93,88.84V27.87h29.64c5.7,0,10.65,0.93,14.87,2.79c4.22,1.86,7.47,4.48,9.76,7.86c2.28,3.38,3.43,7.45,3.43,12.24
		c0,4.71-1.14,8.77-3.43,12.18c-2.29,3.41-5.54,6.01-9.76,7.81c-4.22,1.79-9.18,2.69-14.87,2.69h-18.35l9.07-8.44v23.84H263.93z
		 M284.29,67.32l-7.38-8.86h15.08c3.09,0,5.43-0.69,7.01-2.06c1.58-1.37,2.37-3.25,2.37-5.64c0-2.32-0.79-4.17-2.37-5.54
		c-1.58-1.37-3.92-2.06-7.01-2.06H276.9l7.38-8.86V67.32z M301.16,88.84l-15.29-22.15h21.62L323,88.84H301.16z"/>
	<path d="M332.7,88.84V27.87h16.77l31.75,37.66h-7.59V27.87h19.94v60.97h-16.77l-31.96-37.66h7.81v37.66H332.7z"/>
	<path class="st0" d="M407.91,88.84V15h20.88v73.84H407.91z"/>
	<path class="st0" d="M459.27,88.84V31.56h-22.68V15h66.14v16.56h-22.57v57.27H459.27z"/>
	<path d="M507.14,99.39l34.81-99.36h17.83l-34.81,99.36H507.14z"/>
	<path d="M560.93,79.24v-15.4l46.2-16.35v8.86L560.93,40V24.6l52,19.2v16.24L560.93,79.24z"/>
</g>
</svg>
