<?xml version="1.0" encoding="utf-8"?>
<!-- Generator: Adobe Illustrator 24.2.3, SVG Export Plug-In . SVG Version: 6.00 Build 0)  -->
<svg version="1.1" id="Warstwa_1" xmlns="http://www.w3.org/2000/svg" xmlns:xlink="http://www.w3.org/1999/xlink" x="0px" y="0px"
	 viewBox="0 0 613 99" style="enable-background:new 0 0 613 99;" xml:space="preserve">
<style type="text/css">
	.st0{fill:#FFFFFF;}
	.st1{fill:#2E90FA;}
</style>
<g>
	<path class="st0" d="M51.7,79.2L-0.3,60V43.8l52-19.2V40L5.5,56.3v-8.9l46.2,16.3V79.2z"/>
	<path class="st0" d="M74.7,88.8v-61h20.4v45.6h28.3v15.4C123.3,88.8,74.7,88.8,74.7,88.8z"/>
	<path class="st0" d="M151,73.8h31.1v15.1h-51.2v-61h50v15h-30L151,73.8L151,73.8z M149.3,50.9h28.1V65h-28.1V50.9z"/>
	<path class="st0" d="M184.1,88.8l27.2-61h20l27.1,61h-19.8L218,37.4h6.6l-21,51.5H184.1z M200.3,78l5.2-14h28.4l5.2,14H200.3z"/>
	<path class="st0" d="M263.9,88.8v-61h29.6c5.7,0,10.6,0.9,14.9,2.8c4.2,1.9,7.5,4.5,9.8,7.9c2.3,3.4,3.4,7.5,3.4,12.2
		c0,4.7-1.1,8.8-3.4,12.2c-2.3,3.4-5.5,6-9.8,7.8c-4.2,1.8-9.2,2.7-14.9,2.7h-18.4l9.1-8.4v23.8H263.9z M284.3,67.3l-7.4-8.9H292
		c3.1,0,5.4-0.7,7-2.1c1.6-1.4,2.4-3.2,2.4-5.6c0-2.3-0.8-4.2-2.4-5.5s-3.9-2.1-7-2.1h-15.1l7.4-8.9L284.3,67.3L284.3,67.3z
		 M301.2,88.8l-15.3-22.2h21.6L323,88.8H301.2z"/>
	<path class="st0" d="M332.7,88.8v-61h16.8l31.8,37.7h-7.6V27.9h19.9v61h-16.8l-32-37.7h7.8v37.7C352.7,88.8,332.7,88.8,332.7,88.8z
		"/>
	<path class="st1" d="M407.9,88.8V15h20.9v73.8H407.9z"/>
	<path class="st1" d="M459.3,88.8V31.6h-22.7V15h66.1v16.6h-22.6v57.3L459.3,88.8L459.3,88.8z"/>
	<path class="st0" d="M507.1,99.4L542,0h17.8L525,99.4H507.1z"/>
	<path class="st0" d="M560.9,79.2V63.8l46.2-16.3v8.9L560.9,40V24.6l52,19.2V60L560.9,79.2z"/>
</g>
</svg>
